<svg xmlns="http://www.w3.org/2000/svg" width="251" height="43" fill="none"><path fill="#122947" d="M36.542 42V10.564L22.97 34.75h-3.19L6.15 10.564V42H.93V.82h5.51l14.906 26.738L36.31.82h5.452V42h-5.22ZM64.152.82h4.407L85.38 42h-5.568L74.94 29.936H57.655L52.841 42h-5.568L64.151.82Zm9.627 25.056L66.355 6.852 58.7 25.876h15.08ZM90.875 42V.82h17.632c1.818 0 3.48.387 4.988 1.16a12.48 12.48 0 0 1 3.944 3.016 13.596 13.596 0 0 1 2.61 4.234c.619 1.547.928 3.132.928 4.756 0 1.895-.367 3.693-1.102 5.394-.696 1.701-1.701 3.151-3.016 4.35-1.276 1.199-2.784 2.03-4.524 2.494L122.311 42h-5.916l-9.396-14.79H96.095V42h-5.22Zm5.22-19.43h12.47c1.431 0 2.668-.387 3.712-1.16 1.083-.812 1.914-1.875 2.494-3.19a9.814 9.814 0 0 0 .928-4.234c0-1.547-.348-2.958-1.044-4.234-.696-1.315-1.604-2.359-2.726-3.132a6.394 6.394 0 0 0-3.712-1.16H96.095v17.11Zm49.603 19.72c-2.9 0-5.529-.58-7.888-1.74a19.748 19.748 0 0 1-6.148-4.698 22.657 22.657 0 0 1-3.944-6.728 22.107 22.107 0 0 1-1.392-7.714c0-2.745.484-5.355 1.45-7.83 1.006-2.513 2.378-4.737 4.118-6.67a19.662 19.662 0 0 1 6.206-4.64c2.359-1.16 4.93-1.74 7.714-1.74 2.9 0 5.53.6 7.888 1.798a19.417 19.417 0 0 1 6.09 4.814 22.636 22.636 0 0 1 3.944 6.728 21.476 21.476 0 0 1 1.392 7.598c0 2.745-.483 5.375-1.45 7.888a21.607 21.607 0 0 1-4.118 6.67 19.386 19.386 0 0 1-6.148 4.582c-2.358 1.121-4.93 1.682-7.714 1.682Zm-14.094-20.88c0 2.088.329 4.118.986 6.09.696 1.933 1.663 3.654 2.9 5.162a13.904 13.904 0 0 0 4.466 3.596c1.74.89 3.674 1.334 5.8 1.334 2.204 0 4.176-.464 5.916-1.392a13.615 13.615 0 0 0 4.408-3.712 16.14 16.14 0 0 0 2.784-5.22c.658-1.933.986-3.886.986-5.858 0-2.088-.348-4.099-1.044-6.032a15.762 15.762 0 0 0-2.9-5.162 12.94 12.94 0 0 0-4.466-3.596c-1.701-.89-3.596-1.334-5.684-1.334-2.204 0-4.176.464-5.916 1.392a13.581 13.581 0 0 0-4.466 3.654 17.84 17.84 0 0 0-2.784 5.22 17.757 17.757 0 0 0-.986 5.858Zm57.481 20.88c-2.9 0-5.529-.58-7.888-1.74a19.748 19.748 0 0 1-6.148-4.698 22.657 22.657 0 0 1-3.944-6.728 22.107 22.107 0 0 1-1.392-7.714c0-2.745.484-5.355 1.45-7.83 1.006-2.513 2.378-4.737 4.118-6.67a19.662 19.662 0 0 1 6.206-4.64c2.359-1.16 4.93-1.74 7.714-1.74 2.9 0 5.53.6 7.888 1.798a19.417 19.417 0 0 1 6.09 4.814 22.636 22.636 0 0 1 3.944 6.728 21.476 21.476 0 0 1 1.392 7.598c0 2.745-.483 5.375-1.45 7.888a21.607 21.607 0 0 1-4.118 6.67 19.386 19.386 0 0 1-6.148 4.582c-2.358 1.121-4.93 1.682-7.714 1.682Zm-14.094-20.88c0 2.088.329 4.118.986 6.09.696 1.933 1.663 3.654 2.9 5.162a13.904 13.904 0 0 0 4.466 3.596c1.74.89 3.674 1.334 5.8 1.334 2.204 0 4.176-.464 5.916-1.392a13.615 13.615 0 0 0 4.408-3.712 16.14 16.14 0 0 0 2.784-5.22c.658-1.933.986-3.886.986-5.858 0-2.088-.348-4.099-1.044-6.032a15.762 15.762 0 0 0-2.9-5.162 12.94 12.94 0 0 0-4.466-3.596c-1.701-.89-3.596-1.334-5.684-1.334-2.204 0-4.176.464-5.916 1.392a13.581 13.581 0 0 0-4.466 3.654 17.84 17.84 0 0 0-2.784 5.22 17.757 17.757 0 0 0-.986 5.858Zm45.997-10.962V42h-5.22V.82h4.408l25.172 32.19V.878h5.22V42h-4.756l-24.824-31.552Z"/></svg>